<svg width="180" height="110" viewBox="0 0 217 110" fill="none" xmlns="http://www.w3.org/2000/svg">
    <g id="Group 42106">
        <path id="Vector"
            d="M107.325 38.9729C104.173 39.0769 101.003 39.0422 97.7986 38.869C96.6901 43.1993 96.0665 48.3956 96.0665 54.5619C96.0665 60.6936 96.5169 65.7167 97.4522 69.8738C117.753 67.9512 137.429 72.6625 156.69 82.2064C158.422 83.0378 160.155 83.9385 161.887 84.8739V24.25C160.172 25.1334 158.44 25.9821 156.69 26.7789C143.561 32.9279 129.947 36.9637 115.83 38.4013"
            stroke="#6E1675" stroke-width="3.46422" stroke-linecap="round" stroke-linejoin="round"></path>
        <path id="Vector_2"
            d="M139.369 54.5615C139.369 84.6949 151.001 109.123 165.35 109.123C179.7 109.123 191.332 84.6949 191.332 54.5615C191.332 24.4281 179.7 0 165.35 0C151.001 0 139.369 24.4281 139.369 54.5615Z"
            fill="#5A73FF"></path>
        <path id="Vector_3"
            d="M139.369 54.5614C139.369 84.7001 151.008 109.123 165.35 109.123C171.742 109.123 177.596 104.273 182.117 96.2187C178.237 101.121 173.682 103.927 168.815 103.927C154.473 103.927 142.833 79.5038 142.833 49.3651C142.833 32.6675 146.401 17.7196 152.048 7.70801C144.444 17.2346 139.369 34.6421 139.369 54.5614Z"
            fill="black" fill-opacity="0.4"></path>
        <path id="Vector_4"
            d="M149.156 54.5611C149.156 70.0635 152.413 82.4654 156.258 90.4504C159.376 96.8939 162.875 100.462 165.352 100.462C170.912 100.462 181.547 82.5866 181.547 54.5611C181.547 26.5355 170.912 8.66016 165.352 8.66016C162.875 8.66016 159.376 12.2283 156.258 18.6718C152.413 26.6568 149.156 39.0587 149.156 54.5611Z"
            fill="#1230B1"></path>
        <path id="Vector_5"
            d="M149.156 54.5614C149.156 70.0637 152.412 82.4657 156.257 90.4507C159.375 96.8941 162.874 100.462 165.351 100.462C168.209 100.462 172.418 95.7336 175.812 87.3329C173.301 91.3514 170.755 93.5338 168.815 93.5338C166.338 93.5338 162.839 89.9657 159.721 83.5222C155.876 75.5372 152.62 63.1353 152.62 47.6329C152.62 34.0705 155.114 22.8811 158.318 14.9307C157.608 16.0392 156.932 17.2863 156.257 18.672C152.412 26.6571 149.156 39.059 149.156 54.5614Z"
            fill="black" fill-opacity="0.4"></path>
        <path id="Vector_6" d="M139.371 53.6953H96.0683" stroke="#6E1675" stroke-width="3.46422"
            stroke-linecap="round" stroke-linejoin="round"></path>
        <path id="Vector_7"
            d="M149.022 54.561C149.022 69.6864 152.199 81.7867 155.951 89.5775C158.993 95.8643 162.407 99.3457 164.824 99.3457C170.248 99.3457 180.625 81.905 180.625 54.561C180.625 27.217 170.248 9.77637 164.824 9.77637C162.407 9.77637 158.993 13.2577 155.951 19.5445C152.199 27.3353 149.022 39.4356 149.022 54.561Z"
            fill="#A61AAA"></path>
        <path id="Vector_8"
            d="M182.047 64.3013C182.217 64.2712 182.331 64.1086 182.301 63.9381C182.271 63.7676 182.108 63.6538 181.938 63.6838C181.767 63.7139 181.653 63.8765 181.683 64.047C181.713 64.2175 181.876 64.3314 182.047 64.3013Z"
            fill="#26A17B"></path>
        <path id="Vector_9"
            d="M182.034 64.0122L182.034 64.0121C182.032 64.0126 182.021 64.0152 181.997 64.0195C181.977 64.023 181.964 64.0248 181.959 64.0254L181.959 64.0255C181.883 64.0354 181.825 64.0322 181.822 64.0166C181.819 64.001 181.873 63.9781 181.947 63.9615L181.956 64.0125C181.961 64.012 181.976 64.0103 181.995 64.0069C182.018 64.0028 182.03 63.9998 182.032 63.9992L182.023 63.9482C182.098 63.9383 182.156 63.9415 182.159 63.9571C182.162 63.9727 182.108 63.9956 182.034 64.0122ZM182.022 63.9429L182.014 63.8972L182.118 63.8788L182.106 63.8092L181.822 63.8594L181.834 63.9289L181.938 63.9105L181.946 63.9562C181.862 63.975 181.801 64.0031 181.805 64.0233C181.808 64.0434 181.875 64.049 181.961 64.0379L181.987 64.1842L182.062 64.1709L182.036 64.0246C182.12 64.0057 182.181 63.9777 182.178 63.9576C182.174 63.9374 182.107 63.9319 182.022 63.9429Z"
            fill="white"></path>
        <path id="Vector_10"
            d="M182.394 63.6079C182.455 63.5972 182.512 63.5685 182.557 63.5257C182.601 63.4828 182.632 63.4276 182.646 63.367C182.659 63.3065 182.654 63.2434 182.632 63.1856C182.609 63.1278 182.57 63.078 182.52 63.0424C182.469 63.0069 182.409 62.9872 182.347 62.9858C182.285 62.9845 182.224 63.0015 182.171 63.0348C182.119 63.0681 182.078 63.1162 182.053 63.1729C182.028 63.2297 182.02 63.2926 182.031 63.3536C182.038 63.3942 182.053 63.433 182.075 63.4678C182.097 63.5026 182.126 63.5326 182.16 63.5563C182.193 63.5799 182.232 63.5966 182.272 63.6055C182.312 63.6143 182.354 63.6152 182.394 63.6079Z"
            fill="#2775CA"></path>
        <path id="Vector_11"
            d="M182.434 63.3334C182.427 63.2885 182.397 63.2777 182.342 63.2808C182.302 63.2825 182.293 63.2735 182.289 63.2556C182.286 63.2376 182.297 63.2237 182.323 63.2192C182.346 63.2151 182.36 63.2205 182.37 63.2387C182.371 63.2404 182.373 63.2418 182.374 63.2426C182.376 63.2435 182.378 63.2437 182.38 63.2434L182.401 63.2398C182.402 63.2396 182.403 63.2392 182.404 63.2385C182.405 63.2379 182.406 63.2371 182.407 63.2361C182.407 63.2351 182.408 63.2339 182.408 63.2328C182.408 63.2316 182.408 63.2304 182.408 63.2292L182.408 63.2279C182.403 63.2144 182.394 63.2029 182.382 63.1952C182.37 63.1875 182.355 63.184 182.341 63.1854L182.335 63.1545C182.334 63.1493 182.33 63.1462 182.323 63.146L182.304 63.1494C182.299 63.1503 182.296 63.1549 182.296 63.1615L182.301 63.1912C182.263 63.2033 182.243 63.2332 182.249 63.2654C182.256 63.3078 182.285 63.32 182.34 63.3169C182.377 63.317 182.39 63.3225 182.394 63.3432C182.398 63.3639 182.382 63.3812 182.358 63.3855C182.324 63.3914 182.31 63.3793 182.303 63.3606C182.302 63.3585 182.301 63.3567 182.299 63.3556C182.297 63.3545 182.294 63.354 182.292 63.3544L182.27 63.3583C182.269 63.3585 182.268 63.3589 182.267 63.3595C182.266 63.3602 182.265 63.361 182.264 63.362C182.264 63.363 182.263 63.3641 182.263 63.3653C182.263 63.3665 182.263 63.3677 182.263 63.3689L182.263 63.3702C182.274 63.4014 182.299 63.421 182.342 63.4199L182.348 63.4508C182.349 63.4559 182.353 63.4591 182.36 63.4593L182.379 63.4559C182.384 63.4549 182.387 63.4504 182.387 63.4438L182.382 63.4129C182.419 63.3996 182.44 63.3681 182.434 63.3334L182.434 63.3334Z"
            fill="white"></path>
        <path id="Vector_12"
            d="M182.308 63.4954C182.268 63.4883 182.232 63.4694 182.204 63.441C182.176 63.4127 182.157 63.3763 182.15 63.3369C182.143 63.2975 182.148 63.2569 182.165 63.2206C182.182 63.1843 182.209 63.154 182.244 63.1339C182.246 63.1324 182.248 63.1302 182.249 63.1277C182.25 63.1251 182.25 63.1224 182.25 63.1197L182.246 63.1017C182.246 63.0993 182.245 63.0971 182.243 63.0954C182.242 63.0938 182.239 63.0928 182.237 63.0928C182.235 63.0929 182.233 63.0937 182.232 63.0949C182.188 63.1181 182.152 63.1547 182.13 63.1995C182.108 63.2443 182.101 63.2949 182.109 63.344C182.118 63.3932 182.142 63.4383 182.178 63.4728C182.214 63.5074 182.26 63.5296 182.31 63.5362C182.311 63.5366 182.312 63.5367 182.313 63.5366C182.315 63.5365 182.316 63.536 182.317 63.5353C182.318 63.5346 182.319 63.5337 182.319 63.5326C182.32 63.5315 182.32 63.5303 182.32 63.529C182.321 63.5275 182.321 63.5262 182.321 63.5236L182.318 63.5056C182.317 63.5017 182.312 63.4973 182.308 63.4954ZM182.373 63.07C182.372 63.0696 182.371 63.0694 182.37 63.0696C182.368 63.0697 182.367 63.0702 182.366 63.0709C182.365 63.0716 182.364 63.0725 182.364 63.0736C182.363 63.0747 182.363 63.076 182.363 63.0772C182.362 63.0787 182.362 63.08 182.362 63.0826L182.366 63.1006C182.366 63.1031 182.367 63.1055 182.369 63.1075C182.371 63.1095 182.373 63.111 182.376 63.1121C182.415 63.1191 182.451 63.1381 182.48 63.1664C182.508 63.1948 182.527 63.2311 182.534 63.2705C182.541 63.31 182.535 63.3506 182.518 63.3869C182.502 63.4232 182.474 63.4534 182.439 63.4735C182.437 63.475 182.435 63.4772 182.434 63.4798C182.433 63.4823 182.433 63.4851 182.434 63.4878L182.437 63.5058C182.437 63.5082 182.438 63.5104 182.44 63.512C182.442 63.5137 182.444 63.5146 182.447 63.5147C182.448 63.5146 182.45 63.5138 182.451 63.5125C182.496 63.4892 182.531 63.4524 182.553 63.4076C182.575 63.3627 182.582 63.312 182.574 63.2628C182.565 63.2136 182.541 63.1685 182.505 63.1339C182.469 63.0992 182.423 63.0768 182.373 63.07Z"
            fill="white"></path>
        <path id="Vector_13" d="M185.407 52.836C176.542 52.8253 158.859 52.8037 158.859 52.8037"
            stroke="#F1C244" stroke-width="3.3039" stroke-linecap="round" stroke-linejoin="round"></path>
        <path id="Vector_14"
            d="M96.6652 54.5611C96.6652 60.6928 97.1155 65.7159 98.0509 69.873C99.9908 78.6375 103.975 83.574 110.02 87.1248C111.371 87.9216 112.93 88.2853 114.489 88.32C128.553 88.5625 138.6 94.5729 157.289 105.658V3.46387C138.877 14.3935 128.848 20.6464 114.211 20.8023C112.791 20.8196 111.371 21.1141 110.124 21.7896C104.979 24.5956 100.666 29.9132 98.3973 38.8682C97.2887 43.1985 96.6652 48.3948 96.6652 54.5611Z"
            fill="#1230B1"></path>
        <path id="Vector_15"
            d="M139.966 54.5615C139.966 84.6949 151.599 109.123 165.948 109.123C180.297 109.123 191.93 84.6949 191.93 54.5615C191.93 24.4281 180.297 0 165.948 0C151.599 0 139.966 24.4281 139.966 54.5615Z"
            fill="#5A73FF"></path>
        <path id="Vector_16"
            d="M139.966 54.5614C139.966 84.7001 151.606 109.123 165.948 109.123C172.34 109.123 178.194 104.273 182.715 96.2187C178.835 101.121 174.279 103.927 169.412 103.927C155.07 103.927 143.431 79.5038 143.431 49.3651C143.431 32.6675 146.999 17.7196 152.645 7.70801C145.041 17.2346 139.966 34.6421 139.966 54.5614Z"
            fill="black" fill-opacity="0.4"></path>
        <path id="Vector_17"
            d="M149.754 54.5611C149.754 70.0635 153.01 82.4654 156.856 90.4504C159.974 96.8939 163.472 100.462 165.949 100.462C171.509 100.462 182.145 82.5866 182.145 54.5611C182.145 26.5355 171.509 8.66016 165.949 8.66016C163.472 8.66016 159.974 12.2283 156.856 18.6718C153.01 26.6568 149.754 39.0587 149.754 54.5611Z"
            fill="#102995"></path>
        <g id="Mask group">
            <mask id="mask0_2945_50246" mask-type="alpha" maskUnits="userSpaceOnUse" x="108" y="7"
                width="75" height="103">
                <path id="Union" fill-rule="evenodd" clip-rule="evenodd"
                    d="M153.546 109.089C128.599 109.089 108.352 84.6697 108.352 54.5356C108.352 34.6194 117.179 17.2146 130.406 7.68945C120.584 17.6995 114.377 32.6451 114.377 49.3401C114.377 79.4741 134.624 103.893 159.572 103.893C168.038 103.893 175.962 101.088 182.711 96.1864C174.847 104.239 164.663 109.089 153.546 109.089ZM156.852 90.4511C153.007 82.4661 149.75 70.0642 149.75 54.5618C149.75 39.0594 153.007 26.6575 156.852 18.6724C159.97 12.229 163.469 8.66084 165.946 8.66084C171.506 8.66084 182.141 26.5362 182.141 54.5618C182.141 82.5873 171.506 100.463 165.946 100.463C163.469 100.463 159.97 96.8946 156.852 90.4511Z"
                    fill="#102995"></path>
            </mask>
            <g mask="url(#mask0_2945_50246)">
                <g id="Group 42097">
                    <path id="Vector_18"
                        d="M162.171 92.0221C161.75 92.0217 161.52 92.0215 161.52 92.0215"
                        stroke="#F1C244" stroke-width="3.37997" stroke-linecap="round"
                        stroke-linejoin="round"></path>
                    <path id="Vector_19" d="M176.162 73.2608L143.945 73.2217" stroke="#F1C244"
                        stroke-width="3.37997" stroke-linecap="round" stroke-linejoin="round"></path>
                    <path id="Vector_20"
                        d="M151.987 52.5837C151.987 52.5837 123.394 52.5489 120.082 52.5449"
                        stroke="#F1C244" stroke-width="3.37997" stroke-linecap="round"
                        stroke-linejoin="round"></path>
                    <path id="Vector_21" d="M177.98 33.752L144.316 33.7266" stroke="#F1C244"
                        stroke-width="3.37997" stroke-linecap="round" stroke-linejoin="round"></path>
                    <path id="Vector_22"
                        d="M169.349 17.0947C168.989 17.0951 168.793 17.0953 168.793 17.0953"
                        stroke="#F1C244" stroke-width="3.37997" stroke-linecap="round"
                        stroke-linejoin="round"></path>
                </g>
            </g>
        </g>
        <g id="Group 42105" class="portal-right-icons">
            <g id="Group 42103">
                <path id="Vector_23"
                    d="M188.079 76.1087C194.467 76.1087 199.647 70.9293 199.647 64.5412C199.647 58.153 194.467 52.9736 188.079 52.9736C181.691 52.9736 176.512 58.153 176.512 64.5412C176.512 70.9293 181.691 76.1087 188.079 76.1087Z"
                    fill="#26A17B"></path>
                <path id="Vector_24"
                    d="M189.469 65.5405V65.5385C189.389 65.5443 188.98 65.5694 188.066 65.5694C187.335 65.5694 186.821 65.5472 186.64 65.5385V65.5405C183.829 65.4171 181.732 64.9274 181.732 64.3423C181.732 63.7571 183.829 63.2684 186.64 63.1431V65.0546C186.824 65.0672 187.35 65.098 188.077 65.098C188.951 65.098 189.387 65.0624 189.469 65.0546V63.1431C192.274 63.2684 194.367 63.7581 194.367 64.3423C194.367 64.9274 192.274 65.4152 189.469 65.5405ZM189.469 62.9455V61.2335H193.384V58.627H182.726V61.2335H186.64V62.9436C183.459 63.0901 181.066 63.7205 181.066 64.4753C181.066 65.2301 183.459 65.8595 186.64 66.0061V71.4881H189.469V66.0061C192.645 65.8595 195.032 65.2291 195.032 64.4753C195.032 63.7205 192.645 63.092 189.469 62.9455Z"
                    fill="white"></path>
            </g>
            <g id="Group 42104">
                <path id="Vector_25"
                    d="M205.181 53.1758C207.468 53.1758 209.705 52.4972 211.608 51.2267C213.509 49.9552 214.992 48.1488 215.868 46.0348C216.744 43.9218 216.972 41.5958 216.527 39.3517C216.079 37.1076 214.978 35.0466 213.36 33.4291C211.743 31.8116 209.682 30.7098 207.437 30.2634C205.193 29.8171 202.868 30.0456 200.754 30.9209C198.64 31.7971 196.834 33.2797 195.562 35.1816C194.292 37.0844 193.613 39.3208 193.613 41.6083C193.609 43.1285 193.906 44.6342 194.487 46.0396C195.066 47.4451 195.918 48.7213 196.993 49.7962C198.068 50.871 199.345 51.7231 200.75 52.3034C202.155 52.8828 203.661 53.1797 205.181 53.1758Z"
                    fill="#2775CA"></path>
                <path id="Vector_26"
                    d="M208.362 43.4397C208.362 41.7576 207.351 41.1735 205.325 40.9325C203.878 40.7406 203.591 40.3541 203.591 39.6803C203.591 39.0065 204.072 38.5708 205.035 38.5708C205.905 38.5708 206.386 38.86 206.627 39.5839C206.653 39.6533 206.699 39.7131 206.761 39.7555C206.821 39.7979 206.894 39.8201 206.969 39.8201H207.739C207.783 39.821 207.829 39.8133 207.87 39.7969C207.912 39.7805 207.949 39.7555 207.98 39.7237C208.012 39.6919 208.037 39.6543 208.053 39.6128C208.07 39.5714 208.078 39.527 208.077 39.4827V39.4354C207.984 38.913 207.721 38.4358 207.328 38.0782C206.936 37.7206 206.437 37.5027 205.909 37.4584V36.3016C205.909 36.1088 205.763 35.9652 205.523 35.917H204.799C204.606 35.917 204.463 36.0606 204.414 36.3016V37.414C202.964 37.6116 202.048 38.5708 202.048 39.7757C202.048 41.3672 203.013 41.9938 205.037 42.2348C206.386 42.4758 206.824 42.7601 206.824 43.5352C206.824 44.3102 206.151 44.8375 205.235 44.8375C203.981 44.8375 203.552 44.3112 203.402 43.5843C203.389 43.5024 203.347 43.4282 203.284 43.3752C203.222 43.3212 203.142 43.2913 203.06 43.2903H202.236C202.192 43.2894 202.147 43.2971 202.106 43.3144C202.064 43.3308 202.027 43.3559 201.995 43.3867C201.964 43.4185 201.939 43.4561 201.923 43.4976C201.906 43.539 201.898 43.5834 201.899 43.6277V43.6759C202.092 44.8818 202.863 45.7494 204.454 45.9894V47.1471C204.454 47.339 204.599 47.4845 204.839 47.5327H205.563C205.755 47.5327 205.9 47.3872 205.947 47.1471V45.9894C207.393 45.7494 208.358 44.7363 208.358 43.4359L208.362 43.4397Z"
                    fill="white"></path>
                <path id="Vector_27"
                    d="M202.723 48.5009C201.337 47.9919 200.139 47.0703 199.292 45.8586C198.447 44.6479 197.994 43.2058 197.994 41.729C197.994 40.2522 198.447 38.8102 199.292 37.5994C200.139 36.3887 201.337 35.4662 202.723 34.9572C202.816 34.9177 202.893 34.8493 202.945 34.7635C202.997 34.6767 203.021 34.5765 203.013 34.4762V33.8005C203.02 33.7118 202.994 33.6241 202.941 33.5537C202.888 33.4824 202.81 33.4332 202.723 33.4149C202.656 33.4072 202.587 33.4245 202.531 33.4631C200.776 34.0212 199.243 35.1221 198.157 36.6085C197.069 38.0949 196.484 39.8879 196.484 41.729C196.484 43.5702 197.069 45.3641 198.157 46.8496C199.243 48.336 200.776 49.4378 202.531 49.995C202.571 50.0181 202.616 50.0316 202.662 50.0345C202.709 50.0374 202.755 50.0287 202.797 50.0095C202.84 49.9911 202.875 49.9622 202.905 49.9266C202.934 49.8909 202.954 49.8485 202.964 49.8032C203.012 49.754 203.013 49.7058 203.013 49.6094V48.9356C203.013 48.79 202.869 48.5973 202.723 48.5009ZM207.833 33.4631C207.793 33.4399 207.746 33.4264 207.701 33.4236C207.654 33.4216 207.608 33.4303 207.565 33.4486C207.523 33.4679 207.486 33.4968 207.457 33.5325C207.427 33.5691 207.407 33.6115 207.397 33.6568C207.35 33.7041 207.351 33.7523 207.351 33.8487V34.5234C207.36 34.6198 207.389 34.7143 207.439 34.7982C207.489 34.882 207.558 34.9524 207.64 35.0054C209.027 35.5144 210.225 36.4369 211.07 37.6476C211.916 38.8584 212.369 40.3004 212.369 41.7772C212.369 43.255 211.916 44.6961 211.07 45.9068C210.225 47.1185 209.027 48.0401 207.64 48.5491C207.548 48.5895 207.47 48.657 207.418 48.7438C207.366 48.8296 207.343 48.9308 207.351 49.031V49.7058C207.345 49.7945 207.369 49.8822 207.422 49.9535C207.476 50.0239 207.554 50.0731 207.64 50.0924C207.709 50.0991 207.776 50.0817 207.833 50.0432C209.587 49.4783 211.115 48.3707 212.201 46.8814C213.285 45.3911 213.87 43.5962 213.87 41.7531C213.87 39.91 213.285 38.1151 212.201 36.6258C211.115 35.1355 209.587 34.0289 207.833 33.4631Z"
                    fill="white"></path>
            </g>
        </g>
        <path id="Vector_28"
            d="M149.753 54.5614C149.753 70.0637 153.009 82.4657 156.855 90.4507C159.972 96.8941 163.471 100.462 165.948 100.462C168.806 100.462 173.015 95.7336 176.41 87.3329C173.899 91.3514 171.352 93.5338 169.412 93.5338C166.936 93.5338 163.437 89.9657 160.319 83.5222C156.474 75.5372 153.217 63.1353 153.217 47.6329C153.217 34.0705 155.712 22.8811 158.916 14.9307C158.206 16.0392 157.53 17.2863 156.855 18.672C153.009 26.6571 149.753 39.059 149.753 54.5614Z"
            fill="black" fill-opacity="0.4"></path>
        <path id="Vector_29"
            d="M84.3578 54.5615C84.3578 84.6949 72.7254 109.123 58.3762 109.123C44.027 109.123 32.3945 84.6949 32.3945 54.5615C32.3945 24.4281 44.027 0 58.3762 0C72.7254 0 84.3578 24.4281 84.3578 54.5615Z"
            fill="#5A73FF"></path>
        <path id="Vector_30"
            d="M84.3579 54.5614C84.3579 84.7001 72.7181 109.123 58.3762 109.123C51.9847 109.123 46.1302 104.273 41.6094 96.2187C45.4893 101.121 50.0448 103.927 54.912 103.927C69.2539 103.927 80.8936 79.5038 80.8936 49.3651C80.8936 32.6675 77.3255 17.7196 71.6788 7.70801C79.2828 17.2346 84.3579 34.6421 84.3579 54.5614Z"
            fill="black" fill-opacity="0.4"></path>
        <path id="Vector_31"
            d="M74.5702 54.5611C74.5702 70.0635 71.3138 82.4654 67.4685 90.4504C64.3507 96.8939 60.8518 100.462 58.3749 100.462C52.8148 100.462 42.1797 82.5866 42.1797 54.5611C42.1797 26.5355 52.8148 8.66016 58.3749 8.66016C60.8518 8.66016 64.3507 12.2283 67.4685 18.6718C71.3138 26.6568 74.5702 39.0587 74.5702 54.5611Z"
            fill="#1230B1"></path>
        <path id="Vector_32"
            d="M74.571 54.5614C74.571 70.0637 71.3149 82.4657 67.4696 90.4507C64.3518 96.8941 60.8529 100.462 58.376 100.462C55.518 100.462 51.309 95.7336 47.9141 87.3329C50.4256 91.3514 52.9718 93.5338 54.9118 93.5338C57.3887 93.5338 60.8876 89.9657 64.0054 83.5222C67.8507 75.5372 71.1068 63.1353 71.1068 47.6329C71.1068 34.0705 68.6126 22.8811 65.4082 14.9307C66.1183 16.0392 66.7941 17.2863 67.4696 18.672C71.3149 26.6571 74.571 39.059 74.571 54.5614Z"
            fill="black" fill-opacity="0.4"></path>
        <path id="Vector_33"
            d="M74.7043 54.561C74.7043 69.6864 71.5271 81.7867 67.7754 89.5775C64.7334 95.8643 61.3196 99.3457 58.9029 99.3457C53.4781 99.3457 43.1016 81.905 43.1016 54.561C43.1016 27.217 53.4781 9.77637 58.9029 9.77637C61.3196 9.77637 64.7334 13.2577 67.7754 19.5445C71.5271 27.3353 74.7043 39.4356 74.7043 54.561Z"
            fill="#A61AAA"></path>
        <path id="Vector_34"
            d="M72.9777 100.462C67.4158 100.462 56.7773 82.5864 56.7773 54.5611C56.7773 26.5357 67.4158 8.66016 72.9777 8.66016"
            stroke="#10297A" stroke-width="3.46422" stroke-linecap="round" stroke-linejoin="round"></path>
        <path id="Vector_35"
            d="M63.0517 91.5709C69.2699 93.5817 75.9418 90.1705 77.9526 83.9522C79.9635 77.734 76.5522 71.0621 70.334 69.0513C64.1158 67.0405 57.4439 70.4517 55.4331 76.6699C53.4222 82.8882 56.8335 89.5601 63.0517 91.5709Z"
            fill="#0F8FF8"></path>
        <path id="Vector_36"
            d="M127.261 54.5611C127.261 60.6928 126.81 65.7159 125.875 69.873C123.935 78.6375 119.951 83.574 113.906 87.1248C112.555 87.9216 110.996 88.2853 109.437 88.32C95.3724 88.5625 85.3262 94.5729 66.6367 105.658V3.46387C85.0491 14.3935 95.078 20.6464 109.714 20.8023C111.135 20.8196 112.555 21.1141 113.802 21.7896C118.946 24.5956 123.259 29.9132 125.528 38.8682C126.637 43.1985 127.261 48.3948 127.261 54.5611Z"
            fill="#1230B1"></path>
        <path id="Vector_37"
            d="M83.9594 54.5615C83.9594 84.6949 72.327 109.123 57.9778 109.123C43.6285 109.123 31.9961 84.6949 31.9961 54.5615C31.9961 24.4281 43.6285 0 57.9778 0C72.327 0 83.9594 24.4281 83.9594 54.5615Z"
            fill="#5A73FF"></path>
        <path id="Vector_38"
            d="M83.9594 54.5614C83.9594 84.7001 72.3196 109.123 57.9778 109.123C51.5863 109.123 45.7317 104.273 41.2109 96.2187C45.0909 101.121 49.6463 103.927 54.5135 103.927C68.8554 103.927 80.4952 79.5038 80.4952 49.3651C80.4952 32.6675 76.9271 17.7196 71.2804 7.70801C78.8843 17.2346 83.9594 34.6421 83.9594 54.5614Z"
            fill="black" fill-opacity="0.4"></path>
        <path id="Vector_39"
            d="M74.1717 54.5611C74.1717 70.0635 70.9154 82.4654 67.0701 90.4504C63.9523 96.8939 60.4534 100.462 57.9765 100.462C52.4164 100.462 41.7812 82.5866 41.7812 54.5611C41.7812 26.5355 52.4164 8.66016 57.9765 8.66016C60.4534 8.66016 63.9523 12.2283 67.0701 18.6718C70.9154 26.6568 74.1717 39.0587 74.1717 54.5611Z"
            fill="#102995"></path>
        <g id="Mask group_2">
            <mask id="mask1_2945_50246" mask-type="alpha" maskUnits="userSpaceOnUse" x="41" y="8"
                width="34" height="93">
                <path id="Vector_40"
                    d="M74.1717 54.5611C74.1717 70.0635 70.9154 82.4654 67.0701 90.4504C63.9523 96.8939 60.4534 100.462 57.9765 100.462C52.4164 100.462 41.7812 82.5866 41.7812 54.5611C41.7812 26.5355 52.4164 8.66016 57.9765 8.66016C60.4534 8.66016 63.9523 12.2283 67.0701 18.6718C70.9154 26.6568 74.1717 39.0587 74.1717 54.5611Z"
                    fill="white"></path>
            </mask>
            <g mask="url(#mask1_2945_50246)">
                <g id="Group 42098">
                    <path id="Vector_41"
                        d="M61.9642 92.0221C61.5425 92.0217 61.3125 92.0215 61.3125 92.0215"
                        stroke="#F1C244" stroke-width="3.37997" stroke-linecap="round"
                        stroke-linejoin="round"></path>
                    <path id="Vector_42" d="M75.9585 73.2608L43.7422 73.2217" stroke="#F1C244"
                        stroke-width="3.37997" stroke-linecap="round" stroke-linejoin="round"></path>
                    <path id="Vector_43"
                        d="M51.7798 52.5837C51.7798 52.5837 23.1866 52.5489 19.875 52.5449"
                        stroke="#F1C244" stroke-width="3.37997" stroke-linecap="round"
                        stroke-linejoin="round"></path>
                    <path id="Vector_44" d="M77.7731 33.752L44.1094 33.7266" stroke="#F1C244"
                        stroke-width="3.37997" stroke-linecap="round" stroke-linejoin="round"></path>
                    <path id="Vector_45"
                        d="M69.1418 17.0947C68.782 17.0951 68.5859 17.0953 68.5859 17.0953"
                        stroke="#F1C244" stroke-width="3.37997" stroke-linecap="round"
                        stroke-linejoin="round"></path>
                </g>
            </g>
        </g>
        <g id="Group 42102" class="portal-left-icons">
            <path id="Vector_46"
                d="M25.7861 67.4C25.8316 67.4064 25.8737 67.3746 25.88 67.329C25.8863 67.2835 25.8546 67.2414 25.809 67.2351C25.7635 67.2288 25.7214 67.2606 25.7151 67.3061C25.7088 67.3516 25.7405 67.3937 25.7861 67.4Z"
                fill="#0F8FF8"></path>
            <path id="Vector_47"
                d="M25.7531 67.3275L25.7587 67.3177L25.7631 67.3184C25.7633 67.3166 25.7635 67.3148 25.7637 67.313C25.764 67.3107 25.7644 67.3086 25.7649 67.3066L25.7562 67.3054L25.7618 67.2957L25.7684 67.2966C25.7772 67.2778 25.7924 67.2699 25.8138 67.2729C25.8208 67.2738 25.8274 67.2757 25.8335 67.2784L25.8317 67.2914C25.8261 67.2879 25.8198 67.2856 25.8133 67.2848C25.8004 67.283 25.7913 67.2877 25.786 67.299L25.8243 67.3044L25.8186 67.3141L25.7821 67.309C25.7816 67.3107 25.7813 67.3124 25.7811 67.3141C25.7807 67.3166 25.7805 67.3188 25.7804 67.3208L25.8122 67.3252L25.8067 67.3349L25.7811 67.3314C25.7829 67.3389 25.7856 67.3444 25.7891 67.3477C25.7927 67.3511 25.7981 67.3533 25.8054 67.3543C25.8106 67.355 25.8165 67.3545 25.8231 67.3529L25.8214 67.3651C25.8152 67.3665 25.808 67.3666 25.7998 67.3655C25.7784 67.3625 25.7662 67.3503 25.7634 67.3289L25.7531 67.3275Z"
                fill="white"></path>
            <path id="Vector_48"
                d="M25.7767 67.0724C25.8222 67.0792 25.8645 67.0478 25.8712 67.0023C25.878 66.9568 25.8466 66.9145 25.8011 66.9077C25.7556 66.901 25.7133 66.9324 25.7065 66.9779C25.6998 67.0233 25.7312 67.0657 25.7767 67.0724Z"
                fill="#BC3FE0"></path>
            <path id="Vector_49"
                d="M25.7622 66.9799L25.764 66.9679C25.7668 66.949 25.78 66.9388 25.7998 66.9418C25.8149 66.944 25.8224 66.9517 25.8277 66.9609L25.8135 66.9687C25.8095 66.962 25.8054 66.9578 25.7978 66.9567C25.7886 66.9553 25.7823 66.9608 25.7808 66.9708L25.7791 66.9824L25.8129 66.9875L25.8109 67.001L25.777 66.996L25.7737 67.0183L25.8179 67.0249L25.8159 67.0388L25.7441 67.0282L25.7456 67.018L25.7568 67.0165L25.7602 66.9935L25.7495 66.9919L25.7515 66.9783L25.7622 66.9799Z"
                fill="white"></path>
            <path id="Vector_50"
                d="M25.6929 67.2491C25.7382 67.2411 25.7684 67.198 25.7605 67.1527C25.7525 67.1074 25.7093 67.0772 25.664 67.0852C25.6187 67.0931 25.5885 67.1363 25.5965 67.1816C25.6045 67.2269 25.6477 67.2571 25.6929 67.2491Z"
                fill="#C11A2E"></path>
            <path id="Vector_51"
                d="M25.7113 67.1768C25.7136 67.1899 25.7045 67.2006 25.6889 67.2047L25.691 67.2165L25.6802 67.2184L25.6781 67.2064C25.6672 67.2071 25.6563 67.2048 25.6467 67.1998L25.6527 67.1875C25.6608 67.1917 25.6681 67.1941 25.6764 67.1939L25.6723 67.1704C25.6533 67.1691 25.6437 67.164 25.6413 67.1505C25.639 67.1375 25.648 67.1268 25.6634 67.1229L25.6621 67.1159L25.673 67.114L25.6742 67.1212C25.6828 67.1206 25.6914 67.1224 25.6992 67.1262L25.6942 67.1387C25.688 67.1357 25.682 67.1341 25.676 67.134L25.68 67.1567C25.6997 67.1579 25.709 67.1638 25.7113 67.1768ZM25.6697 67.1559L25.666 67.1349C25.6583 67.1369 25.6549 67.1418 25.6558 67.147C25.6567 67.1521 25.6597 67.1549 25.6697 67.1559ZM25.6968 67.1802C25.6958 67.1748 25.6927 67.172 25.6825 67.171L25.6863 67.1926C25.694 67.1907 25.6978 67.1859 25.6968 67.1802L25.6968 67.1802Z"
                fill="white"></path>
            <g id="Group 42101">
                <path id="Vector_52"
                    d="M34.7173 87.2148C41.2513 87.3402 46.6507 82.1443 46.7761 75.6102C46.9015 69.0762 41.7056 63.6768 35.1715 63.5514C28.6375 63.4259 23.2381 68.6219 23.1127 75.1559C22.9873 81.69 28.1832 87.0893 34.7173 87.2148Z"
                    fill="#0F8FF8"></path>
                <path id="Vector_53"
                    d="M28.9858 77.491L29.6128 76.0206L30.2468 76.0327C30.2358 75.779 30.2319 75.5245 30.2367 75.2701C30.2431 74.9388 30.2628 74.6315 30.2959 74.347L29.0467 74.3231L29.6736 72.8536L30.6162 72.8717C31.5468 70.0696 33.5517 68.6986 36.627 68.7577C37.6386 68.7771 38.5964 68.9267 39.5014 69.2064L39.4656 71.0729C38.6161 70.6739 37.6911 70.4598 36.7534 70.4467C34.9096 70.4114 33.7082 71.2356 33.1472 72.9203L38.6371 73.0257L38.0091 74.4961L32.7608 74.3953C32.7246 74.6383 32.706 74.8845 32.7053 75.1301C32.6985 75.4841 32.7032 75.8008 32.7205 76.0812L37.2925 76.169L36.6725 77.6386L33.0086 77.5682C33.3833 78.6032 33.8497 79.3262 34.4089 79.7404C34.9672 80.1535 35.7708 80.3702 36.8209 80.3903C37.5702 80.4047 38.395 80.2381 39.2963 79.8895L39.2626 81.6445C38.4066 81.9476 37.3939 82.088 36.2216 82.0655C33.1404 82.0063 31.2195 80.4909 30.4599 77.5193L28.9858 77.491Z"
                    fill="white"></path>
            </g>
            <g id="Group 42099">
                <path id="Vector_54"
                    d="M27.7473 41.085C34.28 41.2694 39.726 36.1224 39.9104 29.5897C40.0948 23.0571 34.9478 17.6111 28.4151 17.4267C21.8824 17.2423 16.4364 22.3893 16.252 28.9219C16.0676 35.4546 21.2147 40.9006 27.7473 41.085Z"
                    fill="#BC3FE0"></path>
                <path id="Vector_55"
                    d="M24.4747 28.2767L24.5233 26.5526C24.6001 23.8349 26.2885 22.1758 29.1393 22.2563C31.307 22.3174 32.4926 23.2694 33.3967 24.4778L31.5206 25.8307C30.8421 24.9493 30.192 24.4238 29.0988 24.393C27.7906 24.356 26.9835 25.234 26.9428 26.6781L26.8957 28.345L31.7595 28.4823L31.7044 30.4322L26.8407 30.2949L26.7502 33.4996L33.0976 33.6788L33.0409 35.6848L22.7298 35.3938L22.7711 33.9319L24.3265 33.5249L24.4196 30.2266L22.8769 30.183L22.932 28.2332L24.4747 28.2767Z"
                    fill="white"></path>
            </g>
            <g id="Group 42100">
                <path id="Vector_56"
                    d="M18.9263 67.4017C25.182 65.5107 28.7207 58.9055 26.8296 52.6498C24.9385 46.3941 18.3333 42.8554 12.0776 44.7465C5.82193 46.6376 2.28325 53.2428 4.17435 59.4985C6.06545 65.7542 12.6706 69.2928 18.9263 67.4017Z"
                    fill="#C11A2E"></path>
                <path id="Vector_57"
                    d="M20.7808 56.9166C21.3307 58.7357 20.2186 60.3905 18.0931 61.2319L18.588 62.8687L17.0946 63.3202L16.5947 61.6664C15.069 61.9462 13.496 61.8036 12.0471 61.2536L12.6907 59.4158C13.8999 59.8817 14.9767 60.0971 16.1427 59.9259L15.1625 56.6834C12.4662 56.8123 11.0234 56.2553 10.4584 54.3863C9.91848 52.6003 11.0077 50.9348 13.1041 50.1197L12.8142 49.1607L14.3075 48.7092L14.6077 49.7023C15.8145 49.4786 17.0584 49.5755 18.2162 49.9837L17.7243 51.8292C16.8039 51.5109 15.9258 51.3973 15.0687 51.4761L16.019 54.6195C18.8201 54.4588 20.2409 55.1306 20.7808 56.9166ZM14.5575 54.6822L13.6772 51.77C12.6205 52.1801 12.2293 52.9309 12.4493 53.6587C12.6591 54.3525 13.12 54.7015 14.5575 54.6822ZM18.7889 57.6445C18.5643 56.9016 18.0685 56.5631 16.614 56.5876L17.5191 59.5819C18.5758 59.1718 19.0292 58.4393 18.7892 57.6454L18.7889 57.6445Z"
                    fill="white"></path>
            </g>
        </g>
        <path id="Vector_58"
            d="M74.1726 54.5614C74.1726 70.0637 70.9164 82.4657 67.0712 90.4507C63.9534 96.8941 60.4545 100.462 57.9776 100.462C55.1196 100.462 50.9106 95.7336 47.5156 87.3329C50.0272 91.3514 52.5734 93.5338 54.5134 93.5338C56.9903 93.5338 60.4891 89.9657 63.6069 83.5222C67.4522 75.5372 70.7084 63.1353 70.7084 47.6329C70.7084 34.0705 68.2141 22.8811 65.0097 14.9307C65.7199 16.0392 66.3956 17.2863 67.0712 18.672C70.9164 26.6571 74.1726 39.059 74.1726 54.5614Z"
            fill="black" fill-opacity="0.4"></path>
        <path id="Vector_59"
            d="M94.8359 49.6532C94.583 49.6982 94.3159 49.812 94.1049 49.9637C93.9758 50.0565 93.7719 50.2633 93.6903 50.3829C93.5976 50.5206 92.3787 52.6349 92.3142 52.7724C92.189 53.0353 92.1469 53.2602 92.1579 53.5921C92.1651 53.8324 92.1946 53.9744 92.2789 54.1922C92.3239 54.3105 93.5947 56.5246 93.7087 56.6834C93.9519 57.0235 94.3467 57.278 94.7938 57.3791C94.9289 57.41 94.9484 57.41 96.2587 57.4158C97.1388 57.4187 97.6406 57.4158 97.7446 57.406C98.0341 57.3778 98.297 57.2893 98.5457 57.136C98.6877 57.0475 98.9648 56.7833 99.0518 56.6523C99.1798 56.4611 100.414 54.3105 100.459 54.2022C100.545 53.9899 100.577 53.8382 100.584 53.5921C100.595 53.2602 100.553 53.0353 100.428 52.7724C100.345 52.5954 99.1094 50.4587 99.0265 50.3476C98.7594 49.9877 98.3392 49.729 97.8935 49.6518C97.722 49.6223 95.0019 49.6223 94.8359 49.6532ZM98.4656 50.8215C98.4656 50.8257 98.3771 51.0899 98.2689 51.4076C98.1606 51.7253 98.0721 51.9937 98.0721 52.0021C98.0721 52.019 98.0031 52.0387 97.7699 52.0838C97.6769 52.102 97.3988 52.1596 97.1514 52.2102C95.9494 52.4576 95.6668 52.5153 95.5559 52.535C95.3604 52.5701 95.1565 52.6135 95.1367 52.6235C95.1228 52.632 95.1705 52.6952 95.3027 52.8511C95.4039 52.9707 95.5235 53.1114 95.5669 53.1662C95.6852 53.3108 95.7863 53.4291 95.9354 53.5948C96.0084 53.6764 96.1011 53.7805 96.1391 53.8255C96.1786 53.8703 96.2418 53.9436 96.2797 53.987C96.4204 54.1417 96.4723 54.2133 96.4525 54.2191C96.4049 54.2331 96.2165 54.2697 96.1601 54.2768C96.1027 54.2852 95.903 54.3258 95.4842 54.4172C95.2366 54.4707 95.2239 54.4694 95.141 54.3708C95.1017 54.3245 94.9948 54.2007 94.902 54.094C94.8093 53.987 94.7053 53.8661 94.6702 53.8255C94.4466 53.5653 94.2724 53.3714 94.2569 53.3656C94.2485 53.3617 94.209 53.3137 94.1726 53.2576C94.0488 53.0732 93.9671 52.7711 93.9885 52.5772C94.0235 52.2608 94.1431 52.0077 94.3483 51.818C94.5422 51.6381 94.6981 51.5677 95.0709 51.4948C95.328 51.4442 96.2263 51.2614 96.5329 51.1966C96.6256 51.1771 96.7465 51.1531 96.7997 51.1434C96.8548 51.132 96.977 51.1067 97.074 51.0857C97.1709 51.0659 97.3284 51.0335 97.4254 51.0153C97.5223 50.9956 97.7852 50.9437 98.0089 50.8973C98.4332 50.8114 98.4656 50.8059 98.4656 50.8215ZM97.6082 52.6699C97.6532 52.7192 97.7489 52.8258 97.8205 52.9075C97.8935 52.9889 97.9904 53.0988 98.037 53.1507C98.0834 53.2025 98.1269 53.2576 98.134 53.2729C98.1408 53.2871 98.1508 53.2997 98.158 53.2997C98.1635 53.2997 98.2183 53.3572 98.2789 53.4291C98.3392 53.5007 98.418 53.5906 98.453 53.6301C98.5304 53.7157 98.6105 53.8353 98.6569 53.9364C98.7594 54.1643 98.782 54.4609 98.7117 54.697C98.6316 54.9712 98.4812 55.1861 98.266 55.3339C98.0776 55.4646 98.0413 55.4743 97.2357 55.639C96.9884 55.6895 96.5861 55.7725 96.343 55.8215C96.0998 55.8721 95.6978 55.9537 95.4502 56.0043C95.2029 56.0562 94.8375 56.1308 94.6391 56.1716C94.4397 56.2124 94.2764 56.2419 94.2764 56.2348C94.2764 56.218 94.6673 55.0668 94.6813 55.0441C94.6926 55.0247 94.7305 55.016 95.1481 54.9303C95.2606 54.908 95.5235 54.8545 95.7316 54.8108C95.941 54.7673 96.187 54.7167 96.2797 54.6985C96.3725 54.6801 96.603 54.6324 96.7929 54.5929C96.9826 54.5536 97.2033 54.5086 97.285 54.4946C97.486 54.4567 97.6364 54.4201 97.6364 54.4059C97.6364 54.4003 97.5618 54.3118 97.4704 54.2091C97.3803 54.1079 97.275 53.9828 97.237 53.9322C97.1991 53.8817 97.1317 53.8029 97.0895 53.7565C97.0458 53.7102 96.9699 53.6243 96.9193 53.5669C96.8688 53.5092 96.7984 53.4304 96.7634 53.3912C96.7281 53.353 96.6114 53.2197 96.5031 53.0959C96.3964 52.972 96.2979 52.8638 96.2869 52.854C96.2684 52.8401 96.2684 52.8372 96.2869 52.8316C96.3754 52.8048 96.8743 52.691 97.0107 52.667C97.1035 52.6501 97.2328 52.6264 97.2989 52.6109C97.5028 52.5658 97.5139 52.5687 97.6082 52.6699Z"
            fill="white"></path>
        <path id="Vector_60"
            d="M114.823 49.6378C114.23 49.7313 113.919 50.3019 114.177 50.8259C114.282 51.0382 114.497 51.1926 114.762 51.2466C114.936 51.2805 115.173 51.2692 115.323 51.2181C115.589 51.1291 115.795 50.9165 115.861 50.6644C115.889 50.554 115.889 50.3304 115.86 50.2311C115.779 49.9579 115.541 49.7342 115.252 49.6592C115.149 49.6323 114.925 49.621 114.823 49.6378Z"
            fill="white"></path>
        <path id="Vector_61"
            d="M108.293 53.4252V56.6893H109.051H109.808V55.3256C109.808 54.4845 109.814 53.9165 109.822 53.843C109.873 53.4223 110.069 53.1618 110.431 53.033C110.544 52.9919 110.843 52.9819 110.986 53.0132C111.31 53.0854 111.558 53.3288 111.642 53.656C111.685 53.8246 111.69 54.0327 111.691 55.3609V56.6893H112.442H113.193V55.1528C113.193 54.1673 113.187 53.5654 113.177 53.4776C113.12 52.9566 112.953 52.567 112.65 52.2469C112.391 51.9738 112.051 51.7996 111.656 51.7388C111.464 51.709 111.052 51.7174 110.884 51.7543C110.464 51.8478 110.113 52.0488 109.877 52.3307L109.808 52.4142V51.2883V50.1611H109.051H108.293V53.4252Z"
            fill="white"></path>
        <path id="Vector_62"
            d="M104.569 50.4324C103.923 50.5045 103.347 50.7991 103.035 51.2168C102.783 51.5538 102.673 52.0184 102.728 52.5055C102.772 52.8864 102.925 53.1867 103.214 53.4544C103.508 53.7289 103.781 53.8535 104.848 54.1978C105.537 54.4201 105.787 54.6253 105.787 54.9709C105.787 55.281 105.578 55.4835 105.21 55.5288C104.749 55.5884 104.414 55.366 104.331 54.9467L104.31 54.835H103.502H102.695L102.705 54.968C102.759 55.6887 103.195 56.2538 103.924 56.547C104.589 56.813 105.523 56.8273 106.148 56.581C106.43 56.4706 106.645 56.3302 106.85 56.125C107.205 55.7696 107.373 55.3589 107.373 54.8421C107.373 54.4214 107.28 54.1496 107.047 53.8693C106.754 53.5165 106.424 53.3366 105.488 53.0152C104.862 52.7987 104.608 52.681 104.468 52.5424C104.355 52.4291 104.324 52.3398 104.331 52.1515C104.338 51.9887 104.363 51.9136 104.45 51.8201C104.631 51.6191 105.008 51.5722 105.298 51.7152C105.478 51.8032 105.611 51.9829 105.646 52.1826L105.662 52.2719H106.483H107.305L107.295 52.1754C107.237 51.6091 107.016 51.2 106.595 50.8826C106.268 50.6363 105.859 50.4861 105.369 50.4311C105.219 50.4139 104.72 50.4155 104.569 50.4324Z"
            fill="white"></path>
        <path id="Vector_63"
            d="M118.518 51.7056C117.614 51.7762 116.887 52.4179 116.635 53.3652C116.554 53.6724 116.544 53.7688 116.543 54.2261C116.543 54.6821 116.553 54.7685 116.636 55.0885C116.876 56.0018 117.56 56.6406 118.412 56.7481C118.588 56.7694 118.999 56.7565 119.142 56.7254C119.47 56.6533 119.734 56.5144 119.97 56.2908C120.032 56.2313 120.113 56.1435 120.147 56.0967L120.211 56.0089L120.215 56.3248C120.225 57.0271 120.157 57.3076 119.925 57.5342C119.827 57.629 119.671 57.7196 119.538 57.7578C119.348 57.8115 119.044 57.8131 118.837 57.7591C118.554 57.6856 118.319 57.4915 118.24 57.2692L118.214 57.1999H117.465H116.716L116.726 57.2834C116.731 57.3287 116.751 57.4306 116.77 57.5086C116.982 58.3879 117.754 58.9798 118.844 59.0973C119.034 59.1187 119.507 59.1187 119.673 59.0973C120.201 59.0323 120.594 58.8679 120.958 58.5607C121.334 58.2465 121.593 57.7507 121.701 57.1419C121.722 57.0215 121.725 56.7552 121.729 54.3847L121.735 51.7623H120.975H120.218L120.215 52.1021L120.211 52.4432L120.147 52.3555C119.974 52.1176 119.648 51.8924 119.333 51.792C119.099 51.717 118.789 51.6843 118.518 51.7056ZM119.418 53.0565C119.682 53.1273 119.933 53.3325 120.068 53.5889C120.256 53.9458 120.255 54.5222 120.068 54.8775C119.961 55.0801 119.786 55.2458 119.573 55.3448C119.418 55.4186 119.331 55.4355 119.142 55.4355C118.916 55.4355 118.752 55.3915 118.584 55.2824C118.252 55.0701 118.08 54.7063 118.08 54.2261C118.081 53.8338 118.164 53.5889 118.374 53.361C118.523 53.1995 118.708 53.0934 118.923 53.0451C119.044 53.0183 119.293 53.0238 119.418 53.0565Z"
            fill="white"></path>
        <path id="Vector_64"
            d="M124.492 51.7052C123.996 51.7447 123.573 51.9418 123.216 52.2984C122.759 52.7573 122.536 53.3279 122.514 54.1055C122.497 54.703 122.583 55.1421 122.8 55.5781C122.913 55.8046 123.043 55.9888 123.211 56.1587C123.38 56.3315 123.54 56.4461 123.763 56.5567C124.094 56.7182 124.336 56.7677 124.746 56.7564C125.02 56.7493 125.118 56.7337 125.321 56.6671C125.622 56.568 125.925 56.3597 126.104 56.1305L126.184 56.0243L126.189 56.357L126.191 56.6897H126.949H127.707V54.2257V51.7618H126.949H126.191V52.103V52.4444L126.129 52.3609C125.985 52.1696 125.74 51.9742 125.507 51.868C125.218 51.7363 124.85 51.6768 124.492 51.7052ZM125.434 53.0703C125.496 53.09 125.588 53.1298 125.639 53.1596C125.751 53.2246 125.928 53.3974 125.999 53.5065C126.228 53.8674 126.253 54.4567 126.053 54.8587C125.923 55.1221 125.666 55.3331 125.384 55.4095C125.259 55.4435 124.986 55.445 124.86 55.4111C124.482 55.312 124.203 55.023 124.1 54.6237C124.035 54.3716 124.04 54.0104 124.113 53.7726C124.232 53.3845 124.564 53.0958 124.966 53.0305C124.991 53.0279 125.08 53.0263 125.165 53.0292C125.282 53.0334 125.347 53.0434 125.434 53.0703Z"
            fill="white"></path>
        <path id="Vector_65"
            d="M114.227 54.2258V56.6899H114.984H115.742V54.2258V51.7617H114.984H114.227V54.2258Z"
            fill="white"></path>
    </g>
</svg>